<svg fill="none" height="56" viewBox="0 0 180 56" width="180" xmlns="http://www.w3.org/2000/svg"><path d="m0 0h180v56h-180z" fill="#000"/><g fill="#fff"><path d="m40.6764 27.421c.0151-1.1685.3255-2.3142.9023-3.3306.5768-1.0163 1.4014-1.8702 2.3969-2.4823-.6324-.9032-1.4667-1.6465-2.4367-2.1709s-2.0488-.8153-3.1509-.8498c-2.3509-.2468-4.6301 1.4067-5.8281 1.4067-1.2211 0-3.0656-1.3822-5.0519-1.3414-1.2847.0415-2.5368.4151-3.6342 1.0844-1.0975.6693-2.0028 1.6114-2.6279 2.7347-2.7076 4.6877-.6879 11.5772 1.9057 15.3665 1.2977 1.8555 2.8143 3.9281 4.7987 3.8546 1.9419-.0806 2.6671-1.2383 5.0112-1.2383 2.3222 0 3.0027 1.2383 5.0274 1.1916 2.0837-.0339 3.3965-1.8638 4.6487-3.7368.9323-1.3221 1.6498-2.7834 2.1258-4.3296-1.2106-.512-2.2437-1.369-2.9705-2.4642-.7268-1.0953-1.1151-2.3802-1.1165-3.6946z"/><path d="m36.8521 16.0953c1.1362-1.3639 1.6959-3.1169 1.5604-4.8869-1.7358.1823-3.3392 1.0119-4.4906 2.3235-.563.6407-.9942 1.3861-1.269 2.1936-.2747.8075-.3876 1.6612-.3322 2.5123.8682.009 1.7271-.1792 2.512-.5503.7849-.3712 1.4754-.9155 2.0194-1.5922z"/><path d="m65.2232 36.9956h-6.6268l-1.5914 4.699h-2.8068l6.2767-17.3852h2.9162l6.2768 17.3852h-2.8547zm-5.9405-2.1684h5.2528l-2.5894-7.6262h-.0725z"/><path d="m83.2236 35.3577c0 3.9388-2.1082 6.4695-5.2897 6.4695-.8059.0422-1.6074-.1435-2.3127-.5357s-1.2859-.9751-1.6754-1.6819h-.0602v6.2781h-2.6017v-16.8683h2.5184v2.1082h.0478c.4074-.7035.9978-1.2833 1.7085-1.6779.7106-.3946 1.515-.5891 2.3275-.5629 3.2169 0 5.3375 2.5429 5.3375 6.4709zm-2.6743 0c0-2.5662-1.3261-4.2533-3.3496-4.2533-1.9879 0-3.325 1.7226-3.325 4.2533 0 2.5539 1.3371 4.2642 3.325 4.2642 2.0235 0 3.3496-1.6748 3.3496-4.2642z"/><path d="m97.1743 35.3577c0 3.9389-2.1082 6.4695-5.2896 6.4695-.8059.0422-1.6074-.1435-2.3127-.5357-.7054-.3922-1.286-.9751-1.6754-1.6819h-.0602v6.2781h-2.6017v-16.8683h2.5183v2.1082h.0478c.4074-.7035.9978-1.2833 1.7085-1.6779s1.515-.5891 2.3275-.5629c3.217 0 5.3375 2.5429 5.3375 6.4709zm-2.6742 0c0-2.5662-1.3262-4.2533-3.3496-4.2533-1.9879 0-3.325 1.7226-3.325 4.2533 0 2.5539 1.3371 4.2642 3.325 4.2642 2.0234 0 3.3496-1.6748 3.3496-4.2642z"/><path d="m106.395 36.8506c.192 1.7241 1.867 2.856 4.156 2.856 2.193 0 3.771-1.132 3.771-2.6865 0-1.3494-.952-2.1574-3.205-2.7111l-2.253-.5428c-3.193-.7711-4.675-2.2641-4.675-4.6867 0-2.9996 2.614-5.06 6.326-5.06 3.674 0 6.192 2.0604 6.277 5.06h-2.626c-.157-1.735-1.592-2.7822-3.688-2.7822-2.095 0-3.53 1.0595-3.53 2.6017 0 1.2291.916 1.9524 3.157 2.506l1.916.4703c3.567.8436 5.049 2.2764 5.049 4.8194 0 3.2525-2.591 5.2896-6.712 5.2896-3.855 0-6.458-1.9893-6.627-5.1338z"/><path d="m122.685 26.0198v2.9996h2.41v2.0603h-2.41v6.9877c0 1.0856.482 1.5914 1.542 1.5914.286-.0049.572-.025.856-.0602v2.0481c-.477.089-.961.1293-1.445.1203-2.567 0-3.567-.9639-3.567-3.4221v-7.2652h-1.843v-2.0603h1.843v-2.9996z"/><path d="m126.491 35.3577c0-3.9881 2.349-6.4942 6.012-6.4942 3.675 0 6.012 2.506 6.012 6.4942 0 3.999-2.325 6.4941-6.012 6.4941-3.686 0-6.012-2.4951-6.012-6.4941zm9.373 0c0-2.7358-1.253-4.3504-3.361-4.3504-2.109 0-3.361 1.6269-3.361 4.3504 0 2.7467 1.252 4.349 3.361 4.349 2.108 0 3.361-1.6023 3.361-4.349z"/><path d="m140.66 29.0194h2.482v2.1574h.06c.168-.6738.563-1.2693 1.118-1.6863.555-.4171 1.237-.6302 1.931-.6038.3-.001.599.0316.891.0971v2.4336c-.378-.1156-.773-.1688-1.169-.1572-.378-.0153-.754.0513-1.104.1953-.35.1441-.664.3621-.922.6392-.258.277-.452.6065-.57.9659-.119.3593-.158.7399-.115 1.1158v7.5182h-2.602z"/><path d="m159.138 37.9717c-.35 2.301-2.591 3.8801-5.458 3.8801-3.687 0-5.976-2.4705-5.976-6.434 0-3.9758 2.301-6.5543 5.867-6.5543 3.507 0 5.712 2.409 5.712 6.2522v.8914h-8.952v.1572c-.042.4665.017.9364.171 1.3786s.401.8465.723 1.186c.323.3396.714.6067 1.147.7835.434.1768.9.2594 1.368.2421.615.0576 1.232-.0848 1.76-.406.527-.3212.937-.8041 1.168-1.3768zm-8.795-3.783h6.337c.023-.4194-.04-.8391-.187-1.2328s-.373-.7529-.665-1.055c-.292-.302-.643-.5405-1.031-.7004-.389-.1599-.806-.2378-1.226-.2288-.424-.0025-.844.0789-1.236.2395-.392.1607-.748.3974-1.048.6965-.301.2991-.538.6546-.7 1.0461s-.245.8112-.244 1.2349z"/><path d="m57.4336 14.7548h1.117c.1923.024.3875.0078.5732-.0474s.358-.1483.506-.2734c.1479-.1251.2684-.2795.3537-.4535.0854-.1739.1337-.3637.1421-.5573 0-.7704-.5797-1.2681-1.5627-1.2681-.197-.0275-.3975-.0153-.5897.036-.1922.0512-.3722.1405-.5293.2624-.1571.122-.2882.2742-.3856.4477-.0973.1735-.1589.3647-.1811.5623h-1.2264c.0211-.3588.1158-.7094.2783-1.03s.3893-.6044.6662-.8336c.2768-.2291.598-.3989.9433-.4986s.7075-.1272 1.0639-.0809c1.6447 0 2.8028.9208 2.8028 2.2463.0039.444-.1447.8759-.4209 1.2237-.2762.3477-.6633.5902-1.0967.6869v.0984c.5138.0228.9977.2481 1.3459.6266.3481.3786.5323.8796.5121 1.3935-.038.3694-.1494.7275-.3276 1.0534-.1782.3258-.4197.6128-.7103.8441s-.6244.4023-.9819.5029-.7315.1289-1.1001.0831c-.3693.0503-.745.0258-1.1047-.0722-.3596-.0979-.6959-.2673-.9887-.4979-.2928-.2307-.5362-.518-.7156-.8447s-.2912-.6862-.3287-1.0571h1.2455c.0752.7991.8094 1.3146 1.8922 1.3146s1.7897-.579 1.7897-1.3952c0-.8279-.6659-1.3378-1.8293-1.3378h-1.1526z"/><path d="m63.1608 17.7941c0-1.1348.8463-1.789 2.3447-1.8819l1.7076-.0985v-.5441c0-.6658-.4389-1.0418-1.2906-1.0418-.6945 0-1.1744.255-1.3139.7007h-1.2045c.1272-1.0828 1.1471-1.7774 2.5772-1.7774 1.5804 0 2.4719.7868 2.4719 2.1185v4.3073h-1.1991v-.8859h-.0984c-.1998.3178-.4804.5768-.813.7507-.3327.1739-.7056.2564-1.0806.2391-.2646.0275-.5321-.0007-.7852-.0829-.253-.0822-.4861-.2165-.684-.3942-.198-.1778-.3566-.3951-.4654-.6378-.1089-.2428-.1657-.5057-.1667-.7718zm4.0523-.5387v-.527l-1.5395.0984c-.8682.0581-1.2619.3534-1.2619.9092 0 .5674.4922.8975 1.169.8975.1983.0201.3986.0001.589-.0588s.3671-.1556.5194-.2841c.1523-.1286.2771-.2865.3672-.4644.09-.1778.1433-.3719.1568-.5708z"/><path d="m71.7549 14.3201v5.2568h-1.2441v-6.3041h4.1508v1.0472z"/><path d="m82.2016 16.4221c0 2.003-1.0131 3.2587-2.6045 3.2587-.3907.0267-.7808-.0588-1.1245-.2464s-.6267-.4695-.8155-.8125h-.0985v3.0509h-1.2441v-8.4h1.1976v1.0419h.093c.1923-.355.4789-.65.8283-.8523.3493-.2023.7478-.3041 1.1514-.2941 1.6037-.0001 2.6168 1.2502 2.6168 3.2538zm-1.2797 0c0-1.3316-.6303-2.1362-1.6844-2.1362-1.0472 0-1.7021.8217-1.7021 2.1417 0 1.3139.6549 2.1362 1.6967 2.1362 1.0595 0 1.6898-.8046 1.6898-2.1417z"/><path d="m83.8586 21.8348v-1.0712c.1347.0171.2703.0249.406.0233.2651.0196.5281-.0593.7385-.2217s.3535-.3967.4017-.6581l.093-.307-2.2818-6.3273h1.3549l1.5805 5.0073h.0984l1.575-5.0073h1.3194l-2.3502 6.5646c-.5387 1.5339-1.1348 2.0261-2.4199 2.0261-.104 0-.3993-.0116-.5155-.0287z"/><path d="m90.1135 17.7879h1.2387c.1216.5558.6426.8456 1.3713.8456.8285 0 1.3371-.365 1.3371-.9324 0-.6077-.4567-.8975-1.3371-.8975h-.9434v-.9666h.927c.7519 0 1.1347-.2892 1.1347-.8162 0-.4628-.3705-.8162-1.1347-.8162-.6959 0-1.2045.2953-1.2853.793h-1.1989c.0896-.5719.4001-1.0857.8647-1.431.4645-.3453 1.046-.4945 1.6195-.4154 1.4984 0 2.3556.6774 2.3556 1.7425.007.2965-.088.5865-.2692.8215-.1812.2349-.4375.4005-.7261.4691v.0984c.3436.0443.659.2133.8863.4747.2274.2615.3508.5973.3469.9438 0 1.1984-1.0199 1.9913-2.5771 1.9913-1.3768-.0001-2.4951-.631-2.61-1.9046z"/><path d="m97.0923 19.5769v-6.3041h1.2332v4.3361h.0985l2.905-4.3361h1.233v6.3041h-1.233v-4.3592h-.093l-2.9105 4.3592z"/><path d="m109.356 14.3201h-1.985v5.2568h-1.246v-5.2568h-1.985v-1.0472h5.216z"/><path d="m116.058 17.8748c-.17.5761-.536 1.0743-1.036 1.4077-.499.3334-1.1.4806-1.697.4161-.415.0109-.828-.0686-1.21-.2331-.381-.1646-.722-.4102-.999-.7198s-.484-.6757-.605-1.0731c-.122-.3974-.155-.8164-.098-1.2279-.055-.4129-.021-.8328.1-1.2313.121-.3986.326-.7664.602-1.0787.275-.3123.615-.5618.995-.7315.381-.1697.793-.2556 1.209-.2521 1.755 0 2.814 1.1984 2.814 3.178v.4342h-4.451v.0697c-.02.2314.009.4643.084.6839.076.2195.197.4208.355.5909s.35.3052.564.3967c.213.0915.443.1373.675.1345.298.0355.599-.0181.866-.1542s.487-.3485.633-.6101zm-4.376-2.0317h3.182c.016-.2115-.013-.4239-.084-.6236s-.183-.3824-.329-.5361c-.146-.1538-.323-.2754-.519-.3569-.195-.0815-.406-.1212-.618-.1165-.215-.0029-.429.0373-.628.1184-.2.081-.381.2012-.533.3535-.152.1522-.272.3334-.353.5329-.081.1994-.121.4131-.118.6283z"/><path d="m121.333 13.2728h2.842c1.233 0 1.956.6248 1.956 1.603.002.3104-.102.612-.296.8544s-.465.4109-.769.4772v.0985c.368.0232.714.187.965.4575.25.2704.388.6269.383.9958 0 1.0999-.827 1.8177-2.21 1.8177h-2.871zm1.233.955v1.6324h1.233c.752 0 1.111-.2892 1.111-.8224 0-.4915-.313-.81-.973-.81zm0 2.5471v1.847h1.475c.736 0 1.129-.3247 1.129-.9208 0-.6309-.445-.9262-1.285-.9262z"/></g></svg>
