<svg fill="none" height="56" viewBox="0 0 180 56" width="180" xmlns="http://www.w3.org/2000/svg"><path d="m0 0h180v56h-180z" fill="#000"/><path d="m27.6242 26.8993-14.1966 15.066v.0083c.4346 1.6357 1.9281 2.8394 3.7031 2.8394.7105 0 1.3736-.1923 1.9448-.5267l.0446-.0278 15.9799-9.2201-7.4786-8.1418z" fill="#ea4335"/><path d="m41.9851 24.3331-.0139-.0084-6.8991-3.9984-7.7712 6.9158 7.7991 7.7963 6.8601-3.9595c1.2037-.652 2.0201-1.9198 2.0201-3.3799 0-1.46-.8053-2.7139-1.9978-3.3659" fill="#fbbc04"/><path d="m13.4276 13.3687c-.0864.3149-.131.6464-.131.9864v26.6238c0 .3427.0446.6715.131.9864l14.6814-14.6814z" fill="#4285f4"/><path d="m27.7273 27.6684 7.3476-7.3449-15.9603-9.2536c-.5796-.3483-1.2567-.5489-1.9812-.5489-1.7721 0-3.2684 1.2065-3.7058 2.8449v.0028l14.3024 14.2997z" fill="#34a853"/><g fill="#fff"><path d="m90.8471 30.0006c-3.1347 0-5.6926 2.3851-5.6926 5.673 0 3.288 2.5551 5.6703 5.6926 5.6703 3.1374 0 5.6925-2.4074 5.6925-5.6703 0-3.2628-2.5551-5.673-5.6925-5.673zm0 9.1087c-1.7192 0-3.2016-1.4183-3.2016-3.4357 0-2.0173 1.4824-3.4383 3.2016-3.4383s3.1987 1.3959 3.1987 3.4383c0 2.0425-1.4823 3.4357-3.1987 3.4357zm-12.4189-9.1087c-3.1347 0-5.6926 2.3851-5.6926 5.673 0 3.288 2.5551 5.6703 5.6926 5.6703 3.1374 0 5.6925-2.4074 5.6925-5.6703 0-3.2628-2.5578-5.673-5.6925-5.673zm0 9.1087c-1.7164 0-3.1988-1.4183-3.1988-3.4357 0-2.0173 1.4824-3.4383 3.1988-3.4383s3.2015 1.3959 3.2015 3.4383c0 2.0425-1.4823 3.4357-3.2015 3.4357zm-14.7706-7.3672v2.4046h5.7566c-.1727 1.3542-.6213 2.3406-1.3096 3.0288-.8387.8387-2.1482 1.761-4.447 1.761-3.5443 0-6.3167-2.856-6.3167-6.4003s2.7696-6.4003 6.3167-6.4003c1.9114 0 3.3074.7495 4.3384 1.7164l1.6969-1.6969c-1.4406-1.3737-3.352-2.427-6.0353-2.427-4.8539 0-8.9359 3.9539-8.9359 8.8078s4.082 8.8077 8.9359 8.8077c2.6192 0 4.5947-.861 6.144-2.4715 1.5882-1.5882 2.0842-3.8229 2.0842-5.6285 0-.5572-.0418-1.0727-.1282-1.5018zm60.4114 1.8668c-.474-1.2678-1.911-3.6083-4.854-3.6083-2.942 0-5.347 2.2987-5.347 5.673 0 3.1793 2.405 5.6703 5.626 5.6703 2.6 0 4.101-1.5882 4.726-2.5133l-1.934-1.2901c-.647.9446-1.524 1.5688-2.792 1.5688s-2.171-.5796-2.75-1.7165l7.581-3.1374-.256-.6437zm-7.732 1.892c-.064-2.1929 1.697-3.3074 2.965-3.3074.989 0 1.827.4931 2.106 1.2037l-5.068 2.1065zm-6.166 5.4975h2.491v-16.6681h-2.491zm-4.082-9.73h-.087c-.557-.666-1.633-1.2678-2.984-1.2678-2.837 0-5.4335 2.491-5.4335 5.6926 0 3.2015 2.5995 5.6479 5.4335 5.6479 1.354 0 2.427-.6018 2.984-1.2901h.087v.8165c0 2.1705-1.16 3.3297-3.029 3.3297-1.524 0-2.472-1.0951-2.856-2.0174l-2.1709.9028c.6214 1.5047 2.2769 3.352 5.0269 3.352 2.92 0 5.391-1.7192 5.391-5.9071v-10.1814h-2.362v.9251zm-2.856 7.8409c-1.72 0-3.157-1.4378-3.157-3.4134 0-1.9755 1.437-3.4579 3.157-3.4579 1.719 0 3.028 1.4601 3.028 3.4579 0 1.9979-1.332 3.4134-3.028 3.4134zm32.508-14.7762h-5.96v16.6681h2.486v-6.3139h3.474c2.759 0 5.467-1.9979 5.467-5.1771 0-3.1793-2.711-5.1771-5.467-5.1771zm.064 8.0331h-3.538v-5.7148h3.538c1.862 0 2.918 1.5408 2.918 2.856s-1.056 2.856-2.918 2.856m15.375-2.3935c-1.8 0-3.666.7941-4.438 2.5496l2.209.9223c.471-.9223 1.352-1.2233 2.274-1.2233 1.287 0 2.594.7719 2.616 2.1428v.1727c-.451-.2563-1.415-.6436-2.594-.6436-2.379 0-4.803 1.3068-4.803 3.7532 0 2.2319 1.953 3.6669 4.137 3.6669 1.675 0 2.595-.7495 3.174-1.63h.086v1.2873h2.402v-6.392c0-2.9591-2.206-4.6087-5.06-4.6087m-.301 9.1338c-.816 0-1.953-.4068-1.953-1.4155 0-1.2873 1.416-1.7777 2.639-1.7777 1.092 0 1.608.2368 2.273.5573-.192 1.5436-1.521 2.6387-2.959 2.6387m14.111-8.7715-2.854 7.2278h-.086l-2.959-7.2278h-2.681l4.439 10.1006-2.53 5.6173h2.594l6.841-15.7179h-2.767zm-22.408 10.6634h2.488v-16.6681h-2.488z"/><path d="m57.4245 18.1278c-.6604-.3789-1.1815-.9-1.5604-1.5659-.379-.666-.5684-1.3988-.5684-2.204 0-.8053.1894-1.5381.5684-2.2041.3789-.6659.9-1.187 1.5604-1.5659.6603-.379 1.3932-.5684 2.1984-.5684 1.2455 0 2.2709.4514 3.0734 1.3569l-.8917.8694c-.2869-.34-.6046-.5963-.9557-.7663-.3511-.1699-.7551-.2563-1.2121-.2563-.5656 0-1.0783.1282-1.5436.3873-.4625.2591-.8303.6269-1.1034 1.1034-.2703.4765-.4068 1.0226-.4068 1.6412 0 .6185.1365 1.1647.4068 1.6411.2703.4765.6381.8443 1.1034 1.1007.4625.2591.978.3901 1.5436.3901.9446 0 1.736-.3901 2.3768-1.1731l.9167.8805c-.4012.4709-.886.8387-1.4489 1.1034-.5656.2619-1.1842.3957-1.8557.3957-.8053 0-1.5381-.1895-2.1984-.5685z"/><path d="m64.3542 10.2062h1.2761v4.0263h.0697l3.3074-4.0263h1.6022v.0696l-3.5025 4.1517 3.6892 4.0124v.0697h-1.6718l-3.4217-3.8062h-.0697v3.8062h-1.2761v-8.3062z"/><path d="m76.174 10.2062 3.143 8.3061h-1.4043l-.7663-2.1343h-3.3882l-.7662 2.1343h-1.4044l3.1319-8.3061zm.5573 4.9876-.9279-2.5468-.3121-.9501h-.0696l-.3121.9501-.9279 2.5468h2.5524z"/><path d="m84.1207 14.812c-.5182.457-1.1563.6855-1.9142.6855-.5015 0-.9557-.1031-1.3625-.3065s-.7245-.5016-.9558-.8861c-.2312-.3873-.3483-.8415-.3483-1.3681v-2.7251h1.2873v2.505c0 .5015.1477.8916.4403 1.1647.2926.2758.6882.4124 1.1842.4124.6715 0 1.2288-.2619 1.6718-.7886v-3.2935h1.265v8.3062h-1.265v-3.7003z"/><path d="m91.0895 10.2062 3.143 8.3061h-1.4043l-.7663-2.1343h-3.3882l-.7663 2.1343h-1.4043l3.1319-8.3061zm.5573 4.9876-.9279-2.5468-.3121-.9501h-.0696l-.3121.9501-.9279 2.5468h2.5523z"/><path d="m96.392 11.4127h-2.3322v-1.2065h5.9266v1.2065h-2.3211v7.0996h-1.2761v-7.0996z"/><path d="m101.31 10.2062h1.276v2.9591h1.764c.518 0 .997.1059 1.438.3204.44.2118.791.5211 1.056.9279.262.4068.393.8805.393 1.421 0 .5406-.131 1.0143-.393 1.4211s-.616.7161-1.056.9334c-.441.2174-.92.326-1.438.326h-3.04zm3.132 7.1108c.301 0 .568-.0697.799-.209.232-.1393.41-.3232.533-.5517.122-.2285.186-.4709.186-.7244 0-.2536-.061-.496-.186-.7245-.123-.2285-.301-.4124-.533-.5573-.231-.1421-.498-.2145-.799-.2145h-1.856v2.9814z"/><path d="m111.346 10.2062h1.265v4.5947l-.069 1.6022h.069l3.723-6.1942h1.449v8.3062h-1.265v-4.7089l.07-1.6022h-.07l-3.781 6.3111h-1.393v-8.3062z"/><path d="m120.282 18.164c-.521-.3566-.88-.8804-1.072-1.577l1.17-.4654c.1.4319.295.7746.585 1.0198.29.248.633.3706 1.025.3706.427 0 .789-.1337 1.09-.4012s.451-.5963.451-.992c0-.2563-.072-.4876-.22-.7021-.148-.2118-.348-.3818-.602-.5044-.256-.1226-.532-.1866-.836-.1866h-.685v-1.1146h.616c.418 0 .766-.1142 1.045-.3427.278-.2285.418-.535.418-.9223 0-.3399-.129-.6214-.388-.8471-.259-.2229-.582-.3371-.969-.3371-.349 0-.641.1059-.881.3121-.24.2089-.407.4569-.499.7411l-1.125-.4653c.161-.457.457-.861.889-1.2121.429-.351.972-.5266 1.63-.5266.501 0 .95.0975 1.34.2954.39.1978.696.4681.917.8108.22.3455.331.7328.331 1.1647 0 .8053-.351 1.3988-1.056 1.7861v.0696c.396.1784.716.4375.964.7774.248.34.371.7551.371 1.2428 0 .4876-.123.9-.365 1.2873-.243.3873-.58.691-1.003.9111-.427.2201-.9.3316-1.427.3316-.619 0-1.19-.1783-1.711-.535z"/></g></svg>
