<svg fill="none" height="56" viewBox="0 0 180 56" width="180" xmlns="http://www.w3.org/2000/svg"><path d="m0 0h180v56h-180z" fill="#000"/><g fill="#fff"><path d="m70.112 42 3.048-12.504h.12l3.072 12.504h3.576l4.344-16.8h-3.072l-3 12.816h-.12l-3.168-12.816h-3.312l-3.168 12.816h-.12l-2.976-12.816h-3.12l4.344 16.8zm26.526-6.696c0-3.312-2.184-6.168-5.952-6.168-3.6 0-6 2.352-6 6.552s2.4 6.552 6.048 6.552c3.144 0 4.92-1.728 5.616-3.912h-2.952c-.576.936-1.296 1.488-2.664 1.488-1.896 0-2.952-1.176-3.216-3.24h9c.048-.24.12-.744.12-1.272zm-9.12-.84c.288-1.752 1.392-2.904 3.168-2.904 1.992 0 3.024 1.464 3.216 2.904zm18.245 7.776c3.192 0 5.472-2.28 5.472-6.552s-2.28-6.552-5.472-6.552c-1.896 0-3.048.864-3.672 1.656h-.12v-5.592h-2.7603v16.8h2.3283l.312-1.536h.12c.768.984 1.992 1.776 3.792 1.776zm-.552-2.496c-1.824 0-3.24-1.296-3.24-4.056s1.416-4.056 3.24-4.056c1.848 0 3.264 1.296 3.264 4.056s-1.416 4.056-3.264 4.056zm27.497 2.256-6.144-16.8h-3.6l-6.144 16.8h3.024l1.272-3.528h7.248l1.272 3.528zm-8.04-13.488h.12l2.64 7.344h-5.376zm12.316 18.288v-6.216h.12c.624.792 1.776 1.656 3.672 1.656 3.192 0 5.471-2.28 5.471-6.552s-2.279-6.552-5.471-6.552c-1.8 0-3.024.792-3.792 1.776h-.12l-.312-1.536h-2.328v17.424zm3.24-7.056c-1.824 0-3.24-1.296-3.24-4.056s1.416-4.056 3.24-4.056c1.848 0 3.264 1.296 3.264 4.056s-1.416 4.056-3.264 4.056zm11.22 7.056v-6.216h.12c.624.792 1.776 1.656 3.672 1.656 3.192 0 5.472-2.28 5.472-6.552s-2.28-6.552-5.472-6.552c-1.8 0-3.024.792-3.792 1.776h-.12l-.312-1.536h-2.328v17.424zm3.24-7.056c-1.824 0-3.24-1.296-3.24-4.056s1.416-4.056 3.24-4.056c1.848 0 3.264 1.296 3.264 4.056s-1.416 4.056-3.264 4.056z"/><path d="m64.22 19v-7.284h3.996v7.284h1.26v-8.4h-6.516v8.4zm9.6735.12c1.752 0 2.952-1.164 2.952-3.264s-1.2-3.252-2.952-3.252-2.952 1.152-2.952 3.252 1.2 3.264 2.952 3.264zm0-1.044c-1.032 0-1.812-.744-1.812-2.22 0-1.464.78-2.208 1.812-2.208s1.812.744 1.812 2.208c0 1.476-.78 2.22-1.812 2.22zm5.4021.924v-5.22h2.904v5.22h1.14v-6.276h-5.184v6.276zm6.7968 2.4v-3.144h.06c.36.468.984.864 1.908.864 1.572 0 2.712-1.14 2.712-3.264 0-2.112-1.14-3.252-2.712-3.252-.9 0-1.572.372-1.968.924h-.06l-.144-.804h-.936v8.676zm1.776-3.324c-1.032 0-1.776-.744-1.776-2.22 0-1.464.744-2.208 1.776-2.208 1.02 0 1.764.744 1.764 2.208 0 1.476-.744 2.22-1.764 2.22zm6.861 1.044c1.752 0 2.952-1.164 2.952-3.264s-1.2-3.252-2.952-3.252-2.952 1.152-2.952 3.252 1.2 3.264 2.952 3.264zm0-1.044c-1.032 0-1.812-.744-1.812-2.22 0-1.464.78-2.208 1.812-2.208s1.812.744 1.812 2.208c0 1.476-.78 2.22-1.812 2.22zm6.9746 1.044c1.752 0 2.916-1.116 2.916-3.024 0-1.896-1.104-3-2.676-3-.924 0-1.56.3-1.9925.888h-.06c.1805-1.464.8525-2.244 2.1965-2.244.948 0 1.668-.12 2.136-.36v-1.092c-.48.252-1.248.42-2.28.42-2.1365 0-3.1925 1.512-3.1925 4.872 0 2.376 1.2 3.54 2.9525 3.54zm0-1.044c-1.068 0-1.7765-.72-1.7765-1.98 0-1.248.7085-1.968 1.7765-1.968s1.776.72 1.776 1.968c0 1.26-.708 1.98-1.776 1.98zm6.089 3.324 3.432-8.676h-1.2l-1.848 4.752h-.06l-1.92-4.752h-1.224l2.58 6.276-.96 2.4zm6.953-9.66c1.092 0 1.764-.588 1.872-1.632h-.948c-.048.504-.384.804-.924.804-.528 0-.864-.3-.924-.804h-.948c.108 1.044.78 1.632 1.872 1.632zm-1.284 7.26 2.796-4.752h.06v4.752h1.116v-6.276h-1.404l-2.796 4.752h-.06v-4.752h-1.116v6.276zm8.184 0v-5.22h2.1v-1.056h-5.352v1.056h2.112v5.22zm8.213-3.384c0-1.488-.996-3.012-2.892-3.012-1.716 0-2.916 1.152-2.916 3.252s1.2 3.264 2.952 3.264c1.38 0 2.304-.732 2.688-1.848h-1.212c-.324.54-.768.828-1.476.828-1.032 0-1.668-.66-1.788-1.86h4.584c.024-.12.06-.36.06-.624zm-4.632-.336c.144-.984.708-1.656 1.74-1.656 1.104 0 1.656.828 1.752 1.656z"/><path d="m43.3333 16h-18.6666c-1.0609 0-2.0783.4214-2.8285 1.1716-.7501.7501-1.1715 1.7675-1.1715 2.8284v10.6667c0 1.0608.4214 2.0782 1.1715 2.8284.7502.7501 1.7676 1.1716 2.8285 1.1716h8v2.6666h-5.3334c-.3536 0-.6927.1405-.9428.3906-.25.25-.3905.5891-.3905.9428 0 .3536.1405.6927.3905.9428.2501.25.5892.3905.9428.3905h13.3334c.3536 0 .6927-.1405.9428-.3905.25-.2501.3905-.5892.3905-.9428 0-.3537-.1405-.6928-.3905-.9428-.2501-.2501-.5892-.3906-.9428-.3906h-5.3334v-2.6666h8c1.0609 0 2.0783-.4215 2.8285-1.1716.7501-.7502 1.1715-1.7676 1.1715-2.8284v-10.6667c0-1.0609-.4214-2.0783-1.1715-2.8284-.7502-.7502-1.7676-1.1716-2.8285-1.1716zm1.3334 14.6667c0 .3536-.1405.6927-.3906.9428-.25.25-.5892.3905-.9428.3905h-18.6666c-.3537 0-.6928-.1405-.9429-.3905-.25-.2501-.3905-.5892-.3905-.9428v-10.6667c0-.3536.1405-.6928.3905-.9428.2501-.2501.5892-.3905.9429-.3905h18.6666c.3536 0 .6928.1404.9428.3905.2501.25.3906.5892.3906.9428z"/></g></svg>
